solid JSxCAD
facet normal -1 0 0
outer loop
vertex -60 25 0
vertex -60 -25 30
vertex -60 25 30
endloop
endfacet
facet normal -1 0 0
outer loop
vertex -60 -25 30
vertex -60 25 0
vertex -60 -25 0
endloop
endfacet
facet normal 0 1 0
outer loop
vertex -60 25 0
vertex 60 25 30
vertex 60 25 0
endloop
endfacet
facet normal 0 1 0
outer loop
vertex 60 25 30
vertex -60 25 0
vertex -60 25 30
endloop
endfacet
facet normal 1 0 0
outer loop
vertex 60 -25 0
vertex 60 25 30
vertex 60 -25 30
endloop
endfacet
facet normal 1 0 0
outer loop
vertex 60 25 30
vertex 60 -25 0
vertex 60 25 0
endloop
endfacet
facet normal 0 -1 0
outer loop
vertex -60 -25 30
vertex 60 -25 0
vertex 60 -25 30
endloop
endfacet
facet normal 0 -1 0
outer loop
vertex 60 -25 0
vertex -60 -25 30
vertex -60 -25 0
endloop
endfacet
facet normal 0 0 1
outer loop
vertex -60 25 30
vertex 60 -25 30
vertex 60 25 30
endloop
endfacet
facet normal 0 0 1
outer loop
vertex 60 -25 30
vertex -60 25 30
vertex -60 -25 30
endloop
endfacet
facet normal 0 0 -1
outer loop
vertex 60 -25 0
vertex -60 25 0
vertex 60 25 0
endloop
endfacet
facet normal 0 0 -1
outer loop
vertex -60 25 0
vertex 60 -25 0
vertex -60 -25 0
endloop
endfacet
endsolid JSxCAD
